<?xml version="1.0" encoding="UTF-8" standalone="no"?>
<svg
   xmlns:dc="http://purl.org/dc/elements/1.1/"
   xmlns:cc="http://creativecommons.org/ns#"
   xmlns:rdf="http://www.w3.org/1999/02/22-rdf-syntax-ns#"
   xmlns:svg="http://www.w3.org/2000/svg"
   xmlns="http://www.w3.org/2000/svg"
   xmlns:sodipodi="http://sodipodi.sourceforge.net/DTD/sodipodi-0.dtd"
   xmlns:inkscape="http://www.inkscape.org/namespaces/inkscape"
   width="8"
   height="8"
   viewBox="0 0 8 8"
   id="svg2"
   version="1.1"
   inkscape:version="0.48.4 r9939"
   sodipodi:docname="fork.svg"
   inkscape:export-filename="/home/hannes/Software/ovlnet/dist/macosx/icon16.png"
   inkscape:export-xdpi="180"
   inkscape:export-ydpi="180">
  <metadata
     id="metadata10">
    <rdf:RDF>
      <cc:Work
         rdf:about="">
        <dc:format>image/svg+xml</dc:format>
        <dc:type
           rdf:resource="http://purl.org/dc/dcmitype/StillImage" />
        <dc:title></dc:title>
      </cc:Work>
    </rdf:RDF>
  </metadata>
  <defs
     id="defs8" />
  <sodipodi:namedview
     pagecolor="#ffffff"
     bordercolor="#666666"
     borderopacity="1"
     objecttolerance="10"
     gridtolerance="10"
     guidetolerance="10"
     inkscape:pageopacity="0"
     inkscape:pageshadow="2"
     inkscape:window-width="1680"
     inkscape:window-height="994"
     id="namedview6"
     showgrid="false"
     inkscape:zoom="99"
     inkscape:cx="4"
     inkscape:cy="4"
     inkscape:window-x="0"
     inkscape:window-y="27"
     inkscape:window-maximized="1"
     inkscape:current-layer="svg2" />
  <path
     d="M 2,0 C 1.17,0 0.5,0.67 0.5,1.5 c 0,0.66 0.41,1.2 1,1.41 V 5.1 c -0.59,0.2 -1,0.75 -1,1.41 0,0.83 0.67,1.5 1.5,1.5 0.83,0 1.5,-0.67 1.5,-1.5 C 3.5,5.91 3.16,5.41 2.66,5.17 2.75,5.08 2.87,5.01 3,5.01 h 2 c 0.82,0 1.5,-0.68 1.5,-1.5 V 2.92 c 0.59,-0.2 1,-0.75 1,-1.41 0,-0.83 -0.67,-1.5 -1.5,-1.5 -0.83,0 -1.5,0.67 -1.5,1.5 0,0.66 0.41,1.2 1,1.41 V 3.51 C 5.5,3.79 5.28,4.01 5,4.01 H 3 C 2.83,4.01 2.65,4.05 2.5,4.1 V 2.91 C 3.09,2.71 3.5,2.16 3.5,1.5 3.5,0.67 2.83,0 2,0 z"
     id="path4"
     inkscape:connector-curvature="0" />
</svg>
